<?xml version="1.0" encoding="utf-8"?>
<!-- Generator: Adobe Illustrator 19.0.0, SVG Export Plug-In . SVG Version: 6.00 Build 0)  -->
<svg version="1.1" id="Layer_1" xmlns="http://www.w3.org/2000/svg" xmlns:xlink="http://www.w3.org/1999/xlink" x="0px" y="0px"
	 viewBox="0 0 360 50" style="enable-background:new 0 0 360 50;" xml:space="preserve">
<style type="text/css">
	.st0{filter:url(#Adobe_OpacityMaskFilter);}
	.st1{filter:url(#Adobe_OpacityMaskFilter_1_);}
	.st2{mask:url(#SVGID_1_);fill:url(#SVGID_2_);}
	.st3{fill:url(#SVGID_3_);}
	.st4{filter:url(#Adobe_OpacityMaskFilter_2_);}
	.st5{filter:url(#Adobe_OpacityMaskFilter_3_);}
	.st6{mask:url(#SVGID_4_);fill:url(#SVGID_5_);}
	.st7{fill:url(#SVGID_6_);}
	.st8{filter:url(#Adobe_OpacityMaskFilter_4_);}
	.st9{filter:url(#Adobe_OpacityMaskFilter_5_);}
	.st10{mask:url(#SVGID_7_);fill:url(#SVGID_8_);}
	.st11{fill:url(#SVGID_9_);}
	.st12{filter:url(#Adobe_OpacityMaskFilter_6_);}
	.st13{filter:url(#Adobe_OpacityMaskFilter_7_);}
	.st14{mask:url(#SVGID_10_);fill:url(#SVGID_11_);}
	.st15{fill:url(#SVGID_12_);}
	.st16{filter:url(#Adobe_OpacityMaskFilter_8_);}
	.st17{filter:url(#Adobe_OpacityMaskFilter_9_);}
	.st18{mask:url(#SVGID_13_);fill:url(#SVGID_14_);}
	.st19{fill:url(#SVGID_15_);}
	.st20{filter:url(#Adobe_OpacityMaskFilter_10_);}
	.st21{filter:url(#Adobe_OpacityMaskFilter_11_);}
	.st22{mask:url(#SVGID_16_);fill:url(#SVGID_17_);}
	.st23{fill:url(#SVGID_18_);}
	.st24{fill:#223565;}
</style>
<g>
	<g>
		<defs>
			<filter id="Adobe_OpacityMaskFilter" filterUnits="userSpaceOnUse" x="267.4" y="7.9" width="58.9" height="7.3">
				<feFlood  style="flood-color:white;flood-opacity:1" result="back"/>
				<feBlend  in="SourceGraphic" in2="back" mode="normal"/>
			</filter>
		</defs>
		<mask maskUnits="userSpaceOnUse" x="267.4" y="7.9" width="58.9" height="7.3" id="SVGID_1_">
			<g class="st0">
				<defs>
					<filter id="Adobe_OpacityMaskFilter_1_" filterUnits="userSpaceOnUse" x="267.4" y="7.9" width="58.9" height="7.3">
						<feFlood  style="flood-color:white;flood-opacity:1" result="back"/>
						<feBlend  in="SourceGraphic" in2="back" mode="normal"/>
					</filter>
				</defs>
				<mask maskUnits="userSpaceOnUse" x="267.4" y="7.9" width="58.9" height="7.3" id="SVGID_1_">
					<g class="st1">
					</g>
				</mask>
				<linearGradient id="SVGID_2_" gradientUnits="userSpaceOnUse" x1="267.3909" y1="11.5744" x2="326.2599" y2="11.5744">
					<stop  offset="0" style="stop-color:#000000"/>
					<stop  offset="0.15" style="stop-color:#FFFFFF"/>
					<stop  offset="0.5" style="stop-color:#FFFFFF"/>
					<stop  offset="0.85" style="stop-color:#FFFFFF"/>
					<stop  offset="1" style="stop-color:#000000"/>
				</linearGradient>
				<path class="st2" d="M324.8,12.9c-1.2-0.6-2.5-1.1-4-1.6c-1.4-0.5-2.9-0.9-4.6-1.3c-1.4-0.3-2.9-0.6-4.4-0.9
					c-1.5-0.3-3.1-0.5-4.7-0.6c-1.6-0.2-3.2-0.3-4.9-0.4c-1.7-0.1-3.4-0.1-5.1-0.1c-1.8,0-3.5,0.1-5.1,0.2c-1.7,0.1-3.3,0.2-4.9,0.4
					c-1.6,0.2-3.2,0.4-4.6,0.7c-1.5,0.3-3,0.6-4.3,0.9c-1.6,0.4-3.1,0.8-4.5,1.3c-1.4,0.5-2.7,1.1-3.9,1.7c-0.9,0.5-1.7,0.9-2.4,1.5
					l3.3,0.7c0.1-0.1,0.2-0.2,0.4-0.3c1-0.7,2.1-1.4,3.5-2c1.3-0.6,2.9-1.1,4.5-1.6c1.6-0.5,3.4-0.9,5.3-1.2c1-0.2,2-0.3,3-0.5
					c1-0.1,2.1-0.2,3.1-0.3c1.1-0.1,2.2-0.2,3.3-0.2C295,9,296.1,9,297.2,9c1.1,0,2.3,0,3.4,0.1c1.1,0,2.2,0.1,3.3,0.2
					c1.1,0.1,2.1,0.2,3.2,0.3c1,0.1,2,0.3,3,0.4c1.9,0.3,3.7,0.7,5.3,1.2c1.7,0.5,3.2,1,4.6,1.6c1.1,0.5,2.2,1,3,1.6l3.2-0.7
					C325.8,13.4,325.3,13.1,324.8,12.9z"/>
			</g>
		</mask>
		<linearGradient id="SVGID_3_" gradientUnits="userSpaceOnUse" x1="267.3909" y1="11.5744" x2="326.2599" y2="11.5744">
			<stop  offset="0" style="stop-color:#FFFFFF"/>
			<stop  offset="0.15" style="stop-color:#80A6CE"/>
			<stop  offset="0.5" style="stop-color:#94B5DE"/>
			<stop  offset="0.85" style="stop-color:#94B5DE"/>
			<stop  offset="1" style="stop-color:#FFFFFF"/>
		</linearGradient>
		<path class="st3" d="M324.8,12.9c-1.2-0.6-2.5-1.1-4-1.6c-1.4-0.5-2.9-0.9-4.6-1.3c-1.4-0.3-2.9-0.6-4.4-0.9
			c-1.5-0.3-3.1-0.5-4.7-0.6c-1.6-0.2-3.2-0.3-4.9-0.4c-1.7-0.1-3.4-0.1-5.1-0.1c-1.8,0-3.5,0.1-5.1,0.2c-1.7,0.1-3.3,0.2-4.9,0.4
			c-1.6,0.2-3.2,0.4-4.6,0.7c-1.5,0.3-3,0.6-4.3,0.9c-1.6,0.4-3.1,0.8-4.5,1.3c-1.4,0.5-2.7,1.1-3.9,1.7c-0.9,0.5-1.7,0.9-2.4,1.5
			l3.3,0.7c0.1-0.1,0.2-0.2,0.4-0.3c1-0.7,2.1-1.4,3.5-2c1.3-0.6,2.9-1.1,4.5-1.6c1.6-0.5,3.4-0.9,5.3-1.2c1-0.2,2-0.3,3-0.5
			c1-0.1,2.1-0.2,3.1-0.3c1.1-0.1,2.2-0.2,3.3-0.2C295,9,296.1,9,297.2,9c1.1,0,2.3,0,3.4,0.1c1.1,0,2.2,0.1,3.3,0.2
			c1.1,0.1,2.1,0.2,3.2,0.3c1,0.1,2,0.3,3,0.4c1.9,0.3,3.7,0.7,5.3,1.2c1.7,0.5,3.2,1,4.6,1.6c1.1,0.5,2.2,1,3,1.6l3.2-0.7
			C325.8,13.4,325.3,13.1,324.8,12.9z"/>
		<defs>
			<filter id="Adobe_OpacityMaskFilter_2_" filterUnits="userSpaceOnUse" x="268.9" y="24.8" width="55.5" height="6.5">
				<feFlood  style="flood-color:white;flood-opacity:1" result="back"/>
				<feBlend  in="SourceGraphic" in2="back" mode="normal"/>
			</filter>
		</defs>
		<mask maskUnits="userSpaceOnUse" x="268.9" y="24.8" width="55.5" height="6.5" id="SVGID_4_">
			<g class="st4">
				<defs>
					<filter id="Adobe_OpacityMaskFilter_3_" filterUnits="userSpaceOnUse" x="268.9" y="24.8" width="55.5" height="6.5">
						<feFlood  style="flood-color:white;flood-opacity:1" result="back"/>
						<feBlend  in="SourceGraphic" in2="back" mode="normal"/>
					</filter>
				</defs>
				<mask maskUnits="userSpaceOnUse" x="268.9" y="24.8" width="55.5" height="6.5" id="SVGID_4_">
					<g class="st5">
					</g>
				</mask>
				<linearGradient id="SVGID_5_" gradientUnits="userSpaceOnUse" x1="268.8616" y1="28.0113" x2="324.382" y2="28.0113">
					<stop  offset="0" style="stop-color:#000000"/>
					<stop  offset="0.15" style="stop-color:#FFFFFF"/>
					<stop  offset="0.5" style="stop-color:#FFFFFF"/>
					<stop  offset="0.85" style="stop-color:#FFFFFF"/>
					<stop  offset="1" style="stop-color:#000000"/>
				</linearGradient>
				<path class="st6" d="M276.9,28.8c1.9,0.5,3.9,1,6.1,1.3c2.2,0.4,4.5,0.7,7,0.8c2.5,0.2,5,0.3,7.6,0.3c2.6,0,5.2-0.1,7.6-0.3
					c2.4-0.2,4.8-0.5,7-0.9c2.2-0.4,4.2-0.8,6-1.4c1.8-0.5,3.5-1.1,4.9-1.7c0.4-0.2,0.8-0.4,1.2-0.5l-5-1c-1.4,0.6-2.9,1.1-4.6,1.5
					c-1.2,0.3-2.4,0.6-3.8,0.8c-1.3,0.2-2.7,0.5-4.2,0.6c-1.5,0.2-3,0.3-4.5,0.4c-1.6,0.1-3.2,0.1-4.8,0.2c-1.6,0-3.2,0-4.8-0.1
					c-1.6-0.1-3.1-0.2-4.5-0.4c-1.5-0.2-2.9-0.4-4.2-0.6c-1.3-0.2-2.6-0.5-3.8-0.8c-2.2-0.6-4.2-1.3-5.9-2c-0.2-0.1-0.4-0.2-0.7-0.3
					l-4.8,0.9c0.9,0.5,1.9,1,3,1.5C273.3,27.8,275,28.3,276.9,28.8z"/>
			</g>
		</mask>
		<linearGradient id="SVGID_6_" gradientUnits="userSpaceOnUse" x1="268.8616" y1="28.0113" x2="324.382" y2="28.0113">
			<stop  offset="0" style="stop-color:#FFFFFF"/>
			<stop  offset="0.15" style="stop-color:#80A6CE"/>
			<stop  offset="0.5" style="stop-color:#94B5DE"/>
			<stop  offset="0.85" style="stop-color:#94B5DE"/>
			<stop  offset="1" style="stop-color:#FFFFFF"/>
		</linearGradient>
		<path class="st7" d="M276.9,28.8c1.9,0.5,3.9,1,6.1,1.3c2.2,0.4,4.5,0.7,7,0.8c2.5,0.2,5,0.3,7.6,0.3c2.6,0,5.2-0.1,7.6-0.3
			c2.4-0.2,4.8-0.5,7-0.9c2.2-0.4,4.2-0.8,6-1.4c1.8-0.5,3.5-1.1,4.9-1.7c0.4-0.2,0.8-0.4,1.2-0.5l-5-1c-1.4,0.6-2.9,1.1-4.6,1.5
			c-1.2,0.3-2.4,0.6-3.8,0.8c-1.3,0.2-2.7,0.5-4.2,0.6c-1.5,0.2-3,0.3-4.5,0.4c-1.6,0.1-3.2,0.1-4.8,0.2c-1.6,0-3.2,0-4.8-0.1
			c-1.6-0.1-3.1-0.2-4.5-0.4c-1.5-0.2-2.9-0.4-4.2-0.6c-1.3-0.2-2.6-0.5-3.8-0.8c-2.2-0.6-4.2-1.3-5.9-2c-0.2-0.1-0.4-0.2-0.7-0.3
			l-4.8,0.9c0.9,0.5,1.9,1,3,1.5C273.3,27.8,275,28.3,276.9,28.8z"/>
		<defs>
			<filter id="Adobe_OpacityMaskFilter_4_" filterUnits="userSpaceOnUse" x="250.3" y="2.7" width="92.8" height="8.8">
				<feFlood  style="flood-color:white;flood-opacity:1" result="back"/>
				<feBlend  in="SourceGraphic" in2="back" mode="normal"/>
			</filter>
		</defs>
		<mask maskUnits="userSpaceOnUse" x="250.3" y="2.7" width="92.8" height="8.8" id="SVGID_7_">
			<g class="st8">
				<defs>
					<filter id="Adobe_OpacityMaskFilter_5_" filterUnits="userSpaceOnUse" x="250.3" y="2.7" width="92.8" height="8.8">
						<feFlood  style="flood-color:white;flood-opacity:1" result="back"/>
						<feBlend  in="SourceGraphic" in2="back" mode="normal"/>
					</filter>
				</defs>
				<mask maskUnits="userSpaceOnUse" x="250.3" y="2.7" width="92.8" height="8.8" id="SVGID_7_">
					<g class="st9">
					</g>
				</mask>
				<linearGradient id="SVGID_8_" gradientUnits="userSpaceOnUse" x1="250.2952" y1="7.1361" x2="343.1009" y2="7.1361">
					<stop  offset="0" style="stop-color:#000000"/>
					<stop  offset="0.15" style="stop-color:#FFFFFF"/>
					<stop  offset="0.5" style="stop-color:#FFFFFF"/>
					<stop  offset="0.85" style="stop-color:#FFFFFF"/>
					<stop  offset="1" style="stop-color:#000000"/>
				</linearGradient>
				<path class="st10" d="M253.1,11.5c1.2-0.6,2.4-1.1,3.8-1.6c2.5-1,5.2-1.8,8.1-2.6c2.8-0.7,5.7-1.4,8.8-1.9
					c1.8-0.3,3.7-0.6,5.6-0.8c1.9-0.2,3.8-0.4,5.8-0.6c1.9-0.2,3.9-0.3,5.9-0.4c2-0.1,4.1-0.1,6.1-0.1c2.1,0,4.1,0,6.1,0.1
					c2,0.1,4,0.2,6,0.3c2,0.2,3.9,0.3,5.8,0.6c1.9,0.2,3.8,0.5,5.6,0.8c3.1,0.5,6.1,1.1,8.9,1.8c2.9,0.7,5.6,1.6,8.2,2.5
					c0.9,0.3,1.8,0.7,2.7,1.1l2.8-0.6c-0.1,0-0.2-0.1-0.3-0.1c-2.3-0.9-4.7-1.8-7.3-2.5c-2.5-0.7-5.2-1.4-7.9-1.9l-0.2,0
					c-0.1,0-0.2,0-0.3-0.1c-0.1,0-0.2,0-0.3-0.1c-0.1,0-0.2,0-0.3-0.1c-0.1,0-0.2,0-0.3-0.1c-2.2-0.4-4.6-0.8-6.9-1.1
					c-2.3-0.3-4.7-0.6-7.1-0.8c-2.4-0.2-4.9-0.4-7.4-0.5c-2.5-0.1-5-0.2-7.6-0.1c-2.6,0-5.1,0.1-7.6,0.2c-2.5,0.1-5,0.3-7.4,0.5
					c-2.4,0.2-4.8,0.5-7.1,0.9c-2.4,0.3-4.7,0.7-6.9,1.2c-2.9,0.6-5.6,1.2-8.2,2c-2.7,0.8-5.3,1.6-7.6,2.6c-0.7,0.3-1.3,0.6-2,0.8
					L253.1,11.5z"/>
			</g>
		</mask>
		<linearGradient id="SVGID_9_" gradientUnits="userSpaceOnUse" x1="250.2952" y1="7.1361" x2="343.1009" y2="7.1361">
			<stop  offset="0" style="stop-color:#FFFFFF"/>
			<stop  offset="0.15" style="stop-color:#80A6CE"/>
			<stop  offset="0.5" style="stop-color:#94B5DE"/>
			<stop  offset="0.85" style="stop-color:#94B5DE"/>
			<stop  offset="1" style="stop-color:#FFFFFF"/>
		</linearGradient>
		<path class="st11" d="M253.1,11.5c1.2-0.6,2.4-1.1,3.8-1.6c2.5-1,5.2-1.8,8.1-2.6c2.8-0.7,5.7-1.4,8.8-1.9
			c1.8-0.3,3.7-0.6,5.6-0.8c1.9-0.2,3.8-0.4,5.8-0.6c1.9-0.2,3.9-0.3,5.9-0.4c2-0.1,4.1-0.1,6.1-0.1c2.1,0,4.1,0,6.1,0.1
			c2,0.1,4,0.2,6,0.3c2,0.2,3.9,0.3,5.8,0.6c1.9,0.2,3.8,0.5,5.6,0.8c3.1,0.5,6.1,1.1,8.9,1.8c2.9,0.7,5.6,1.6,8.2,2.5
			c0.9,0.3,1.8,0.7,2.7,1.1l2.8-0.6c-0.1,0-0.2-0.1-0.3-0.1c-2.3-0.9-4.7-1.8-7.3-2.5c-2.5-0.7-5.2-1.4-7.9-1.9l-0.2,0
			c-0.1,0-0.2,0-0.3-0.1c-0.1,0-0.2,0-0.3-0.1c-0.1,0-0.2,0-0.3-0.1c-0.1,0-0.2,0-0.3-0.1c-2.2-0.4-4.6-0.8-6.9-1.1
			c-2.3-0.3-4.7-0.6-7.1-0.8c-2.4-0.2-4.9-0.4-7.4-0.5c-2.5-0.1-5-0.2-7.6-0.1c-2.6,0-5.1,0.1-7.6,0.2c-2.5,0.1-5,0.3-7.4,0.5
			c-2.4,0.2-4.8,0.5-7.1,0.9c-2.4,0.3-4.7,0.7-6.9,1.2c-2.9,0.6-5.6,1.2-8.2,2c-2.7,0.8-5.3,1.6-7.6,2.6c-0.7,0.3-1.3,0.6-2,0.8
			L253.1,11.5z"/>
		<defs>
			<filter id="Adobe_OpacityMaskFilter_6_" filterUnits="userSpaceOnUse" x="239" y="30.3" width="116" height="16.9">
				<feFlood  style="flood-color:white;flood-opacity:1" result="back"/>
				<feBlend  in="SourceGraphic" in2="back" mode="normal"/>
			</filter>
		</defs>
		<mask maskUnits="userSpaceOnUse" x="239" y="30.3" width="116" height="16.9" id="SVGID_10_">
			<g class="st12">
				<defs>
					<filter id="Adobe_OpacityMaskFilter_7_" filterUnits="userSpaceOnUse" x="239" y="30.3" width="116" height="16.9">
						<feFlood  style="flood-color:white;flood-opacity:1" result="back"/>
						<feBlend  in="SourceGraphic" in2="back" mode="normal"/>
					</filter>
				</defs>
				<mask maskUnits="userSpaceOnUse" x="239" y="30.3" width="116" height="16.9" id="SVGID_10_">
					<g class="st13">
					</g>
				</mask>
				<linearGradient id="SVGID_11_" gradientUnits="userSpaceOnUse" x1="238.9895" y1="38.8098" x2="355.0002" y2="38.8098">
					<stop  offset="0" style="stop-color:#000000"/>
					<stop  offset="0.15" style="stop-color:#FFFFFF"/>
					<stop  offset="0.5" style="stop-color:#FFFFFF"/>
					<stop  offset="0.85" style="stop-color:#FFFFFF"/>
					<stop  offset="1" style="stop-color:#000000"/>
				</linearGradient>
				<path class="st14" d="M349.3,31.2c-0.5,0.5-1.1,0.9-1.7,1.4c-2.4,1.8-5.6,3.5-9.5,5c-2.4,0.9-5.1,1.8-8,2.6
					c-3,0.8-6.2,1.5-9.6,2c-3.5,0.6-7.1,1-10.9,1.3c-3.8,0.3-7.8,0.5-11.8,0.5c-4,0-8-0.1-11.9-0.4c-3.8-0.3-7.5-0.7-11-1.3
					c-3.4-0.5-6.7-1.2-9.7-2c-2.9-0.7-5.6-1.6-8.1-2.5c-3.9-1.5-7.2-3.1-9.7-4.9c-1.2-0.8-2.2-1.7-3-2.6l-5.6,1.1
					c0.4,0.4,0.7,0.9,1.2,1.3c1.8,1.8,4.3,3.6,7.4,5.2l0,0c2.6,1.3,5.6,2.6,9,3.7c3.5,1.2,7.4,2.2,11.7,3c4.3,0.9,9,1.5,14,2
					c5,0.5,10.2,0.7,15.6,0.7c5.4,0,10.6-0.3,15.5-0.8c4.9-0.5,9.6-1.2,13.9-2.1c4.2-0.9,8.1-1.9,11.6-3.1c3.4-1.2,6.3-2.4,8.9-3.8
					c3.1-1.6,5.5-3.4,7.3-5.2L349.3,31.2z"/>
			</g>
		</mask>
		<linearGradient id="SVGID_12_" gradientUnits="userSpaceOnUse" x1="238.9895" y1="38.8098" x2="355.0002" y2="38.8098">
			<stop  offset="0" style="stop-color:#FFFFFF"/>
			<stop  offset="0.15" style="stop-color:#80A6CE"/>
			<stop  offset="0.5" style="stop-color:#94B5DE"/>
			<stop  offset="0.85" style="stop-color:#94B5DE"/>
			<stop  offset="1" style="stop-color:#FFFFFF"/>
		</linearGradient>
		<path class="st15" d="M349.3,31.2c-0.5,0.5-1.1,0.9-1.7,1.4c-2.4,1.8-5.6,3.5-9.5,5c-2.4,0.9-5.1,1.8-8,2.6c-3,0.8-6.2,1.5-9.6,2
			c-3.5,0.6-7.1,1-10.9,1.3c-3.8,0.3-7.8,0.5-11.8,0.5c-4,0-8-0.1-11.9-0.4c-3.8-0.3-7.5-0.7-11-1.3c-3.4-0.5-6.7-1.2-9.7-2
			c-2.9-0.7-5.6-1.6-8.1-2.5c-3.9-1.5-7.2-3.1-9.7-4.9c-1.2-0.8-2.2-1.7-3-2.6l-5.6,1.1c0.4,0.4,0.7,0.9,1.2,1.3
			c1.8,1.8,4.3,3.6,7.4,5.2l0,0c2.6,1.3,5.6,2.6,9,3.7c3.5,1.2,7.4,2.2,11.7,3c4.3,0.9,9,1.5,14,2c5,0.5,10.2,0.7,15.6,0.7
			c5.4,0,10.6-0.3,15.5-0.8c4.9-0.5,9.6-1.2,13.9-2.1c4.2-0.9,8.1-1.9,11.6-3.1c3.4-1.2,6.3-2.4,8.9-3.8c3.1-1.6,5.5-3.4,7.3-5.2
			L349.3,31.2z"/>
		<defs>
			<filter id="Adobe_OpacityMaskFilter_8_" filterUnits="userSpaceOnUse" x="254.7" y="27.5" width="84.3" height="10.9">
				<feFlood  style="flood-color:white;flood-opacity:1" result="back"/>
				<feBlend  in="SourceGraphic" in2="back" mode="normal"/>
			</filter>
		</defs>
		<mask maskUnits="userSpaceOnUse" x="254.7" y="27.5" width="84.3" height="10.9" id="SVGID_13_">
			<g class="st16">
				<defs>
					<filter id="Adobe_OpacityMaskFilter_9_" filterUnits="userSpaceOnUse" x="254.7" y="27.5" width="84.3" height="10.9">
						<feFlood  style="flood-color:white;flood-opacity:1" result="back"/>
						<feBlend  in="SourceGraphic" in2="back" mode="normal"/>
					</filter>
				</defs>
				<mask maskUnits="userSpaceOnUse" x="254.7" y="27.5" width="84.3" height="10.9" id="SVGID_13_">
					<g class="st17">
					</g>
				</mask>
				<linearGradient id="SVGID_14_" gradientUnits="userSpaceOnUse" x1="254.6663" y1="32.919" x2="338.9524" y2="32.919">
					<stop  offset="0" style="stop-color:#000000"/>
					<stop  offset="0.15" style="stop-color:#FFFFFF"/>
					<stop  offset="0.5" style="stop-color:#FFFFFF"/>
					<stop  offset="0.85" style="stop-color:#FFFFFF"/>
					<stop  offset="1" style="stop-color:#000000"/>
				</linearGradient>
				<path class="st18" d="M260.9,32.1c2,0.9,4.4,1.8,6.9,2.5c2.6,0.8,5.5,1.4,8.7,2c3.2,0.6,6.5,1,10.1,1.3
					c3.6,0.3,7.3,0.4,11.1,0.4c3.8,0,7.5-0.2,11.1-0.5c3.5-0.3,6.9-0.8,10-1.4c3.1-0.6,6-1.3,8.6-2.1c2.6-0.8,4.9-1.6,6.9-2.6
					c1.8-0.8,3.4-1.7,4.7-2.6l-4.9-0.9c-0.1,0.1-0.3,0.2-0.4,0.3c-2.1,1.2-4.6,2.4-7.7,3.4c-1.8,0.6-3.8,1.1-5.9,1.6
					c-2.1,0.5-4.4,0.9-6.8,1.3c-2.4,0.4-4.9,0.6-7.5,0.8c-2.6,0.2-5.3,0.3-8.1,0.3c-2.8,0-5.5-0.1-8.1-0.2c-2.6-0.2-5.1-0.4-7.6-0.8
					c-2.4-0.3-4.7-0.7-6.8-1.2c-2.1-0.5-4.1-1-5.9-1.6c-3.1-1-5.7-2.1-7.8-3.3c-0.7-0.4-1.4-0.9-2-1.3l-4.8,0.9
					c0.1,0.1,0.1,0.1,0.2,0.2C256.4,29.8,258.5,31,260.9,32.1z"/>
			</g>
		</mask>
		<linearGradient id="SVGID_15_" gradientUnits="userSpaceOnUse" x1="254.6663" y1="32.919" x2="338.9524" y2="32.919">
			<stop  offset="0" style="stop-color:#FFFFFF"/>
			<stop  offset="0.15" style="stop-color:#80A6CE"/>
			<stop  offset="0.5" style="stop-color:#94B5DE"/>
			<stop  offset="0.85" style="stop-color:#94B5DE"/>
			<stop  offset="1" style="stop-color:#FFFFFF"/>
		</linearGradient>
		<path class="st19" d="M260.9,32.1c2,0.9,4.4,1.8,6.9,2.5c2.6,0.8,5.5,1.4,8.7,2c3.2,0.6,6.5,1,10.1,1.3c3.6,0.3,7.3,0.4,11.1,0.4
			c3.8,0,7.5-0.2,11.1-0.5c3.5-0.3,6.9-0.8,10-1.4c3.1-0.6,6-1.3,8.6-2.1c2.6-0.8,4.9-1.6,6.9-2.6c1.8-0.8,3.4-1.7,4.7-2.6l-4.9-0.9
			c-0.1,0.1-0.3,0.2-0.4,0.3c-2.1,1.2-4.6,2.4-7.7,3.4c-1.8,0.6-3.8,1.1-5.9,1.6c-2.1,0.5-4.4,0.9-6.8,1.3c-2.4,0.4-4.9,0.6-7.5,0.8
			c-2.6,0.2-5.3,0.3-8.1,0.3c-2.8,0-5.5-0.1-8.1-0.2c-2.6-0.2-5.1-0.4-7.6-0.8c-2.4-0.3-4.7-0.7-6.8-1.2c-2.1-0.5-4.1-1-5.9-1.6
			c-3.1-1-5.7-2.1-7.8-3.3c-0.7-0.4-1.4-0.9-2-1.3l-4.8,0.9c0.1,0.1,0.1,0.1,0.2,0.2C256.4,29.8,258.5,31,260.9,32.1z"/>
		<defs>
			<filter id="Adobe_OpacityMaskFilter_10_" filterUnits="userSpaceOnUse" x="258.6" y="5.2" width="76.3" height="8.1">
				<feFlood  style="flood-color:white;flood-opacity:1" result="back"/>
				<feBlend  in="SourceGraphic" in2="back" mode="normal"/>
			</filter>
		</defs>
		<mask maskUnits="userSpaceOnUse" x="258.6" y="5.2" width="76.3" height="8.1" id="SVGID_16_">
			<g class="st20">
				<defs>
					<filter id="Adobe_OpacityMaskFilter_11_" filterUnits="userSpaceOnUse" x="258.6" y="5.2" width="76.3" height="8.1">
						<feFlood  style="flood-color:white;flood-opacity:1" result="back"/>
						<feBlend  in="SourceGraphic" in2="back" mode="normal"/>
					</filter>
				</defs>
				<mask maskUnits="userSpaceOnUse" x="258.6" y="5.2" width="76.3" height="8.1" id="SVGID_16_">
					<g class="st21">
					</g>
				</mask>
				<linearGradient id="SVGID_17_" gradientUnits="userSpaceOnUse" x1="258.5862" y1="9.2431" x2="334.9016" y2="9.2431">
					<stop  offset="0" style="stop-color:#000000"/>
					<stop  offset="0.15" style="stop-color:#FFFFFF"/>
					<stop  offset="0.5" style="stop-color:#FFFFFF"/>
					<stop  offset="0.85" style="stop-color:#FFFFFF"/>
					<stop  offset="1" style="stop-color:#000000"/>
				</linearGradient>
				<path class="st22" d="M332.1,12.4l2.8-0.6c-0.4-0.2-0.8-0.4-1.3-0.6c-1.8-0.8-3.7-1.5-5.8-2.1c-2-0.6-4.2-1.2-6.5-1.7
					c-1.8-0.4-3.7-0.7-5.7-1c-1.9-0.3-3.9-0.5-5.9-0.7c-2-0.2-4.1-0.3-6.2-0.4c-2.1-0.1-4.2-0.1-6.4-0.1c-2.2,0-4.3,0.1-6.4,0.2
					c-2.1,0.1-4.2,0.3-6.2,0.5c-2,0.2-4,0.5-5.9,0.8c-1.9,0.3-3.8,0.7-5.6,1.1c-2.3,0.5-4.4,1.1-6.4,1.7c-2.1,0.6-4,1.4-5.8,2.2
					c-0.8,0.4-1.6,0.7-2.3,1.1l2.8,0.6c1.2-0.7,2.5-1.3,3.9-1.9c1.9-0.8,4-1.5,6.3-2.1c2.2-0.6,4.6-1.1,7-1.6l0,0
					c1.4-0.3,2.9-0.5,4.4-0.7c1.5-0.2,3-0.4,4.6-0.5c1.5-0.1,3.1-0.2,4.7-0.3c1.6-0.1,3.2-0.1,4.9-0.1c1.7,0,3.3,0,4.9,0.1
					c1.6,0.1,3.2,0.2,4.8,0.3c1.6,0.1,3.1,0.3,4.6,0.5c1.5,0.2,3,0.4,4.4,0.6c2.5,0.4,4.9,0.9,7.1,1.5c2.3,0.6,4.4,1.3,6.3,2.1
					C330.3,11.6,331.2,12,332.1,12.4z"/>
			</g>
		</mask>
		<linearGradient id="SVGID_18_" gradientUnits="userSpaceOnUse" x1="258.5862" y1="9.2431" x2="334.9016" y2="9.2431">
			<stop  offset="0" style="stop-color:#FFFFFF"/>
			<stop  offset="0.15" style="stop-color:#80A6CE"/>
			<stop  offset="0.5" style="stop-color:#94B5DE"/>
			<stop  offset="0.85" style="stop-color:#94B5DE"/>
			<stop  offset="1" style="stop-color:#FFFFFF"/>
		</linearGradient>
		<path class="st23" d="M332.1,12.4l2.8-0.6c-0.4-0.2-0.8-0.4-1.3-0.6c-1.8-0.8-3.7-1.5-5.8-2.1c-2-0.6-4.2-1.2-6.5-1.7
			c-1.8-0.4-3.7-0.7-5.7-1c-1.9-0.3-3.9-0.5-5.9-0.7c-2-0.2-4.1-0.3-6.2-0.4c-2.1-0.1-4.2-0.1-6.4-0.1c-2.2,0-4.3,0.1-6.4,0.2
			c-2.1,0.1-4.2,0.3-6.2,0.5c-2,0.2-4,0.5-5.9,0.8c-1.9,0.3-3.8,0.7-5.6,1.1c-2.3,0.5-4.4,1.1-6.4,1.7c-2.1,0.6-4,1.4-5.8,2.2
			c-0.8,0.4-1.6,0.7-2.3,1.1l2.8,0.6c1.2-0.7,2.5-1.3,3.9-1.9c1.9-0.8,4-1.5,6.3-2.1c2.2-0.6,4.6-1.1,7-1.6l0,0
			c1.4-0.3,2.9-0.5,4.4-0.7c1.5-0.2,3-0.4,4.6-0.5c1.5-0.1,3.1-0.2,4.7-0.3c1.6-0.1,3.2-0.1,4.9-0.1c1.7,0,3.3,0,4.9,0.1
			c1.6,0.1,3.2,0.2,4.8,0.3c1.6,0.1,3.1,0.3,4.6,0.5c1.5,0.2,3,0.4,4.4,0.6c2.5,0.4,4.9,0.9,7.1,1.5c2.3,0.6,4.4,1.3,6.3,2.1
			C330.3,11.6,331.2,12,332.1,12.4z"/>
	</g>
	<path class="st24" d="M21.3,17.9c0-1.7-0.3-3.2-1-4.5c-0.6-1.3-1.6-2.3-2.8-2.9c-1.2-0.7-2.6-1-4.2-1h-4v0H5v24.2h4.5v-7.2h4v0
		c2.5,0,4.4-0.8,5.8-2.3C20.6,22.6,21.3,20.5,21.3,17.9z M16,21.5c-0.5,0.8-1.4,1.2-2.6,1.2H9.5V13h3.9c1.2,0,2.1,0.4,2.6,1.2
		c0.5,0.8,0.8,2,0.8,3.6C16.7,19.5,16.5,20.7,16,21.5z"/>
	<path class="st24" d="M70.1,28.4c0,1.7-0.6,3-1.8,3.8c-1.2,0.9-2.9,1.3-5.2,1.3c-1.2,0-2.2-0.1-3-0.2c-0.8-0.2-1.6-0.4-2.4-0.7
		v-3.7c0.8,0.4,1.8,0.7,2.8,1c1,0.3,2,0.4,2.7,0.4c1.6,0,2.4-0.5,2.4-1.4c0-0.4-0.1-0.6-0.3-0.9c-0.2-0.2-0.6-0.5-1.1-0.7
		c-0.5-0.3-1.2-0.6-2.1-1c-1.3-0.5-2.2-1-2.8-1.5s-1-1-1.3-1.5c-0.3-0.6-0.4-1.3-0.4-2.1c0-1.5,0.6-2.6,1.7-3.4
		c1.1-0.8,2.7-1.2,4.8-1.2c2,0,3.9,0.4,5.8,1.3l-1.3,3.2c-0.8-0.4-1.6-0.6-2.3-0.9c-0.7-0.2-1.4-0.3-2.2-0.3c-1.3,0-2,0.4-2,1.1
		c0,0.4,0.2,0.7,0.6,1c0.4,0.3,1.4,0.7,2.8,1.3c1.3,0.5,2.2,1,2.8,1.5c0.6,0.4,1,1,1.3,1.6C70,26.9,70.1,27.6,70.1,28.4z"/>
	<path class="st24" d="M73,12.7c0-1.5,0.8-2.2,2.4-2.2c1.6,0,2.4,0.7,2.4,2.2c0,0.7-0.2,1.2-0.6,1.6c-0.4,0.4-1,0.6-1.8,0.6
		C73.8,14.9,73,14.1,73,12.7z M77.6,33.6h-4.5V16.9h4.5V33.6z"/>
	<path class="st24" d="M95.8,25.1c0,2.7-0.7,4.8-2.1,6.3c-1.4,1.5-3.4,2.3-5.9,2.3c-1.6,0-3-0.3-4.2-1c-1.2-0.7-2.1-1.7-2.8-3
		c-0.6-1.3-1-2.8-1-4.5c0-2.7,0.7-4.8,2.1-6.2c1.4-1.5,3.4-2.2,5.9-2.2c1.6,0,3,0.3,4.2,1c1.2,0.7,2.1,1.7,2.8,2.9
		C95.5,21.9,95.8,23.4,95.8,25.1z M84.5,25.1c0,1.6,0.3,2.8,0.8,3.7c0.5,0.8,1.4,1.2,2.6,1.2c1.2,0,2-0.4,2.6-1.2
		c0.5-0.8,0.8-2.1,0.8-3.7c0-1.6-0.3-2.8-0.8-3.6c-0.5-0.8-1.4-1.2-2.6-1.2c-1.2,0-2.1,0.4-2.6,1.2C84.8,22.2,84.5,23.4,84.5,25.1z"
		/>
	<path class="st24" d="M55,33.6h-4.5v-9.9c0-1.2-0.2-2.1-0.6-2.7c-0.4-0.6-1.1-0.9-2-0.9c-1.3,0-2.2,0.4-2.7,1.3
		c-0.6,0.8-0.8,2.2-0.8,4.2v8h-4.5V16.9h4V19l0,0c0.5-0.8,1.4-1.4,2.3-1.8c0.9-0.4,1.9-0.6,3-0.6c1.9,0,3.4,0.5,4.3,1.5
		c1,1,1.5,2.5,1.5,4.5V33.6z"/>
	<path class="st24" d="M113.5,33.6H109v-9.9c0-1.2-0.2-2.1-0.6-2.7c-0.4-0.6-1.1-0.9-2-0.9c-1.3,0-2.2,0.4-2.7,1.3
		c-0.6,0.8-0.8,2.2-0.8,4.2v8h-4.5V16.9h4V19l0,0c0.5-0.8,1.4-1.4,2.3-1.8c0.9-0.4,1.9-0.6,3-0.6c1.9,0,3.3,0.5,4.3,1.5
		c1,1,1.5,2.5,1.5,4.5V33.6z"/>
	<path class="st24" d="M132.6,24.6c0-1.7-0.3-3.2-1-4.5c-0.6-1.3-1.6-2.3-2.8-2.9c-1.2-0.7-2.6-1-4.2-1h-4v0h-4.5V40h4.5v-6.9h4v0
		c2.5,0,4.4-0.8,5.8-2.3C131.9,29.3,132.6,27.2,132.6,24.6z M127.2,28.3c-0.5,0.8-1.4,1.2-2.6,1.2h-3.9v-9.8h3.9
		c1.2,0,2.1,0.4,2.6,1.2c0.5,0.8,0.8,2,0.8,3.6C128,26.2,127.8,27.4,127.2,28.3z"/>
	<path class="st24" d="M37.6,24c0-2.3-0.6-4.1-1.9-5.5c-1.3-1.3-3.1-2-5.4-2c-2.4,0-4.3,0.7-5.7,2.2c-1.4,1.5-2.1,3.6-2.1,6.4
		c0,2.7,0.7,4.7,2.2,6.2c1.5,1.5,3.5,2.2,6.2,2.2c0.1,0,0.1,0,0.2,0v0h4v-3.3h-4c-1.3,0-2.3-0.4-3-1.1c-0.7-0.7-1.1-1.7-1.1-3h10.6
		V24z M27.1,23.2c0.1-1.1,0.4-2,0.9-2.6c0.5-0.6,1.3-0.9,2.2-0.9c0.9,0,1.7,0.3,2.3,0.9c0.6,0.6,0.8,1.5,0.9,2.6H27.1z"/>
	<path class="st24" d="M211,24c0-2.3-0.6-4.1-1.9-5.5c-1.3-1.3-3.1-2-5.4-2c-2.4,0-4.3,0.7-5.7,2.2c-1.4,1.5-2.1,3.6-2.1,6.4
		c0,2.7,0.7,4.7,2.2,6.2c1.5,1.5,3.5,2.2,6.2,2.2c0.1,0,0.1,0,0.2,0v0h4v-3.3h-4c-1.3,0-2.3-0.4-3-1.1c-0.7-0.7-1.1-1.7-1.1-3H211
		V24z M200.5,23.2c0.1-1.1,0.4-2,0.9-2.6c0.5-0.6,1.3-0.9,2.2-0.9c0.9,0,1.7,0.3,2.3,0.9c0.6,0.6,0.8,1.5,0.9,2.6H200.5z"/>
	<path class="st24" d="M193.6,33.6h-4.5v-9.9c0-1.2-0.2-2.1-0.6-2.7c-0.4-0.6-1.1-0.9-2-0.9c-1.3,0-2.2,0.4-2.7,1.3
		c-0.6,0.8-0.8,2.2-0.8,4.2v8h-4.5V16.9h4V19l0,0c0.5-0.8,1.4-1.4,2.3-1.8c0.9-0.4,1.9-0.6,3-0.6c1.9,0,3.3,0.5,4.3,1.5
		c1,1,1.5,2.5,1.5,4.5V33.6z"/>
	<path class="st24" d="M153.3,18c2.8-2,8.8-1.9,10.7-1l-1,3c-2.3-0.4-7-0.9-7,2.3v11.2h-4.4V22.4C151.5,20.4,152.1,18.9,153.3,18z"
		/>
	<path class="st24" d="M215.1,18c2.8-2,8.8-1.9,10.7-1l-1,3c-2.3-0.4-7-0.9-7,2.3v11.2h-4.4V22.4C213.4,20.4,213.9,18.9,215.1,18z"
		/>
	<path class="st24" d="M172.8,30c-0.6,0-1.1-0.2-1.4-0.5c-0.4-0.3-0.5-0.8-0.5-1.4v-7.9h4.6v-3.4h-4.6v-3.5H168h-1.6v6.8v7.9
		c0,1.8,0.4,3.2,1.2,4.1c0.8,0.9,2.1,1.4,3.9,1.4c1.6,0,3-0.2,4.1-0.7V30H172.8z"/>
	<path class="st24" d="M147.3,18c-1.2-1-2.9-1.4-5.1-1.4c-2.3,0-4.4,0.5-6.3,1.5l1.5,3c1.8-0.8,3.3-1.2,4.6-1.2
		c1.7,0,2.5,0.8,2.5,2.5v0.7l-2.8,0.1c-2.5,0.1-4.3,0.5-5.5,1.4c-1.2,0.8-1.8,2.1-1.8,3.8c0,1.7,0.5,2.9,1.4,3.8
		c0.9,0.9,2.1,1.3,3.7,1.3c1.1,0,4.5-0.5,5.6-1.3v1h3.9v-7.6v-3.3C149.1,20.5,148.5,19,147.3,18z M144.6,27.2c0,1.1-0.3,2-1,2.6
		c-0.7,0.7-1.6,1-2.7,1c-1.6,0-2.4-0.7-2.4-2.1c0-1,0.3-1.7,1-2.2c0.7-0.5,1.8-0.7,3.2-0.8l1.9-0.1V27.2z"/>
</g>
</svg>
